<svg width="72" height="73" viewBox="0 0 72 73" fill="none" xmlns="http://www.w3.org/2000/svg">
<g clip-path="url(#clip0_5_13)">
<path d="M62.317 59.5088C62.7187 59.3481 63.067 59.3079 63.3616 59.3882C63.6562 59.4686 63.8036 59.703 63.8036 60.0914C63.8036 60.4798 63.6027 60.9284 63.2009 61.4373C62.8527 61.8659 62.2634 62.4485 61.433 63.1851C60.6027 63.9217 59.3236 64.8324 57.596 65.9173C55.8683 67.0021 53.9799 67.9931 51.9308 68.8905C49.8817 69.7878 47.3638 70.5646 44.3772 71.2208C41.3906 71.8771 38.317 72.2052 35.1562 72.2052C31.9687 72.2052 28.7812 71.79 25.5937 70.9597C22.4062 70.1293 19.6071 69.1048 17.1964 67.886C14.7857 66.6673 12.4754 65.2744 10.2656 63.7074C8.05579 62.1405 6.28124 60.7342 4.94195 59.4887C3.60267 58.2431 2.47767 57.0713 1.56695 55.9731C1.35267 55.732 1.21874 55.511 1.16517 55.3101C1.1116 55.1092 1.12499 54.9485 1.20535 54.828C1.2857 54.7074 1.39285 54.6137 1.52678 54.5467C1.6607 54.4798 1.81472 54.453 1.98883 54.4664C2.16294 54.4798 2.31695 54.54 2.45088 54.6472C7.59374 57.7811 11.6116 60.0043 14.5045 61.3168C24.9241 66.0311 35.625 67.2365 46.6071 64.9329C51.6964 63.8615 56.933 62.0534 62.317 59.5088ZM70.6339 54.8882C70.9286 55.3168 70.962 56.2476 70.7344 57.6806C70.5067 59.1137 70.125 60.4865 69.5893 61.799C68.6786 64.0222 67.5402 65.6829 66.1741 66.7811C65.7187 67.1561 65.3705 67.2766 65.1295 67.1427C64.8884 67.0088 64.8884 66.6873 65.1295 66.1784C65.6919 64.9731 66.2879 63.3458 66.9174 61.2967C67.5469 59.2476 67.6339 57.9284 67.1786 57.3391C67.0446 57.1516 66.837 56.9976 66.5558 56.8771C66.2745 56.7565 65.9129 56.6762 65.471 56.636C65.029 56.5958 64.6339 56.5623 64.2857 56.5356C63.9375 56.5088 63.4687 56.5088 62.8795 56.5356C62.2902 56.5623 61.8683 56.5891 61.6138 56.6159C61.3594 56.6427 60.9442 56.6829 60.3683 56.7365C59.7924 56.79 59.4911 56.8168 59.4643 56.8168C59.3036 56.8436 59.1295 56.8637 58.942 56.8771C58.7545 56.8905 58.6071 56.9039 58.5 56.9173C58.3928 56.9306 58.279 56.944 58.1585 56.9574C58.0379 56.9708 57.9442 56.9775 57.8772 56.9775H57.4754L57.3549 56.9574L57.2745 56.8972L57.2143 56.7766C57.0536 56.3481 57.683 55.8123 59.1027 55.1695C60.5223 54.5266 61.9018 54.1248 63.2411 53.9641C64.4732 53.7766 65.9196 53.7632 67.5803 53.924C69.2411 54.0847 70.2589 54.4061 70.6339 54.8882ZM54.8036 37.0891C54.8036 37.9195 54.9844 38.7766 55.346 39.6606C55.7076 40.5445 56.1361 41.3213 56.6317 41.9909C57.1272 42.6606 57.6295 43.2766 58.1384 43.8391C58.6473 44.4016 59.0893 44.8302 59.4643 45.1248L59.9866 45.5668L50.8661 54.5668C49.7946 53.5757 48.7366 52.5646 47.692 51.5333C46.6473 50.5021 45.8705 49.7186 45.3616 49.1829L44.5982 48.3793C44.3036 48.0847 43.9687 47.6427 43.5937 47.0534C42.5759 48.6338 41.2701 50.0065 39.6763 51.1717C38.0826 52.3369 36.375 53.1873 34.5536 53.7231C32.7321 54.2588 30.8571 54.5668 28.9286 54.6472C27 54.7275 25.1585 54.4463 23.404 53.8034C21.6495 53.1606 20.0759 52.2833 18.683 51.1717C17.2902 50.0601 16.1786 48.5467 15.3482 46.6315C14.5178 44.7164 14.1027 42.54 14.1027 40.1025C14.1027 37.8525 14.4777 35.79 15.2277 33.915C15.9777 32.04 16.942 30.4798 18.1205 29.2342C19.2991 27.9887 20.7254 26.8771 22.3995 25.8994C24.0736 24.9217 25.7143 24.1583 27.3214 23.6092C28.9286 23.0601 30.6696 22.5981 32.5446 22.2231C34.4196 21.8481 36.0201 21.6003 37.346 21.4798C38.6719 21.3592 40.0045 21.2722 41.3437 21.2186V16.1159C41.3437 14.3748 41.0625 13.0757 40.5 12.2186C39.5893 10.799 37.9687 10.0891 35.6384 10.0891C35.4777 10.0891 35.2567 10.1025 34.9754 10.1293C34.6942 10.1561 34.1518 10.3168 33.3482 10.6115C32.5446 10.9061 31.7946 11.3012 31.0982 11.7967C30.4018 12.2923 29.6518 13.0891 28.8482 14.1873C28.0446 15.2856 27.4018 16.5713 26.9196 18.0445L15.1071 16.9597C15.1071 15.3525 15.4018 13.7588 15.9911 12.1784C16.5803 10.5981 17.4777 9.08466 18.683 7.63824C19.8884 6.19181 21.3348 4.91949 23.0223 3.82127C24.7098 2.72306 26.7388 1.84583 29.1094 1.18958C31.4799 0.533325 34.0312 0.2052 36.7634 0.2052C39.442 0.2052 41.8661 0.540022 44.0357 1.20966C46.2053 1.87931 47.9397 2.70297 49.2388 3.68065C50.5379 4.65833 51.6228 5.76993 52.4933 7.01547C53.3638 8.261 53.9665 9.41279 54.3013 10.4708C54.6361 11.5289 54.8036 12.5132 54.8036 13.424V37.0891ZM27.8036 37.9329C27.8036 40.2365 28.7411 42.0177 30.6161 43.2766C32.3839 44.4552 34.2455 44.7498 36.2009 44.1606C38.4509 43.4909 39.9777 41.8436 40.7812 39.2186C41.1562 38.0132 41.3437 36.6606 41.3437 35.1606V28.6516C39.7634 28.7052 38.2768 28.8659 36.8839 29.1338C35.4911 29.4016 34.0647 29.8503 32.6049 30.4798C31.1451 31.1092 29.9799 32.0601 29.1094 33.3324C28.2388 34.6048 27.8036 36.1382 27.8036 37.9329Z" fill="#B7BAC6"/>
</g>
<defs>
<clipPath id="clip0_5_13">
<rect width="72" height="72" fill="white" transform="translate(0 0.2052)"/>
</clipPath>
</defs>
</svg>
