<svg width="200" height="73" viewBox="0 0 200 73" fill="none" xmlns="http://www.w3.org/2000/svg">
<g clip-path="url(#clip0_4_11)">
<path d="M25.6196 3.40287C12.6059 18.686 0.126232 37.6404 0.00114768 51.807C-0.0476505 57.1377 1.65503 61.7911 5.73802 65.3179C11.6114 70.3901 18.0796 72.183 24.5207 72.1913C33.9344 72.204 43.2805 68.4058 50.6005 65.4803C62.9255 60.5502 199.158 1.3901 199.158 1.3901C200.472 0.732564 200.224 -0.0895924 198.58 0.321177C197.918 0.488265 50.2688 40.5 50.2688 40.5C47.4191 41.3011 44.5088 41.7156 41.6748 41.7305C30.3292 41.7969 20.2323 35.4997 20.3138 22.226C20.345 17.0318 21.9387 10.7708 25.6196 3.40287Z" fill="#B59354"/>
</g>
<defs>
<clipPath id="clip0_4_11">
<rect width="200" height="72" fill="white" transform="translate(0 0.2052)"/>
</clipPath>
</defs>
</svg>
