<svg width="69" height="73" viewBox="0 0 69 73" fill="none" xmlns="http://www.w3.org/2000/svg">
<path d="M64.8511 28.4413C59.8087 22.102 52.794 15.9741 43.5669 10.4303L43.5379 10.4013C34.2817 4.9777 25.5559 1.82463 17.6877 0.527775C12.7944 -0.296745 10.4369 0.643788 9.3762 1.29429C8.31551 1.91164 6.33915 3.53582 4.56996 8.27992C1.74007 15.9161 0.0868876 25.2302 -0.00012207 36.1644V36.1935C0.0578844 47.1277 1.74007 56.475 4.56996 64.107C6.33915 68.8842 8.31551 70.4753 9.3762 71.1216C10.4369 71.739 12.7944 72.7127 17.6877 71.8881C25.56 70.5913 34.2527 67.4092 43.5379 61.9856L43.5669 61.9566C52.794 56.4128 59.8087 50.2849 64.8511 43.9456C67.9751 39.997 68.3605 37.4323 68.3605 36.1935C68.3605 34.9546 68.0041 32.394 64.8511 28.4413Z" fill="#FE6900"/>
</svg>
